# xmcd CD database file
#
# Track frame offsets:
#	150
#	10063
#	19275
#	28450
#	38184
#	48243
#	58395
#	67981
#	78661
#	88310
#	99907
#	108968
#	119357
#	130330
#	142085
#	153281
#	161577
#	174363
#	186875
#	197207
#	207370
#	217468
#	227708
#	236767
#
# Disc length: 3287 seconds
#
# Revision: 2
# Processed by: cddbd v1.5.2PL0 Copyright (c) Steve Scherf et al.
# Submitted via: jetAudio 7
#
DISCID=630cd518
DTITLE=Floyd Cramer - Seven Classic Albums Plus CD1
DYEAR=2014
DGENRE=Instrumental
TTITLE0=Sweet Adeline
TTITLE1=Waltz With Cramer (Shenandoah Waltz - Waltz With Me - Tennessee W
TTITLE1=altz)
TTITLE2=Dixie
TTITLE3=Piajno Rag
TTITLE4=Good Time Cake Walk
TTITLE5=Succotash
TTITLE6=Pretty Blue Jeans
TTITLE7=Jealous Heart - Cold, Cold Heart - Your Cheatin' Heart
TTITLE8=Battle Hymn Of The Republic
TTITLE9=Tennessee Central (Number 9)
TTITLE10=Howdy Ma'm
TTITLE11=Country Gentlemen
TTITLE12=Last Date
TTITLE13=I Need You Now
TTITLE14=Moments To Remember
TTITLE15=Tennessee Waltz
TTITLE16=Too Young
TTITLE17=Mood Indigo
TTITLE18=Sweetie Baby
TTITLE19=Mumble Jumble
TTITLE20=Flip, Flop And Bop
TTITLE21=Fancy Pants
TTITLE22=Rumpus
TTITLE23=Heart And Soul
EXTD=© Real Gone Music RGMCD118 (2014)
EXTT0=
EXTT1=
EXTT2=
EXTT3=
EXTT4=
EXTT5=
EXTT6=
EXTT7=
EXTT8=
EXTT9=
EXTT10=
EXTT11=
EXTT12=
EXTT13=
EXTT14=
EXTT15=
EXTT16=
EXTT17=
EXTT18=
EXTT19=
EXTT20=
EXTT21=
EXTT22=
EXTT23=
PLAYORDER=
